<?xml version="1.0" encoding="utf-8"?>
<!-- Generator: Adobe Illustrator 27.5.0, SVG Export Plug-In . SVG Version: 6.00 Build 0)  -->
<svg version="1.1" id="Layer_1" xmlns="http://www.w3.org/2000/svg" xmlns:xlink="http://www.w3.org/1999/xlink" x="0px" y="0px"
	 viewBox="0 0 800 800" style="enable-background:new 0 0 800 800;" xml:space="preserve">
<radialGradient id="SVGID_1_" cx="395.963" cy="347.0429" r="242.0447" gradientTransform="matrix(1.4111 0 0 1.4111 -153.5506 -185.3963)" gradientUnits="userSpaceOnUse">
	<stop  offset="0" style="stop-color:#ADAAB3"/>
	<stop  offset="0.272" style="stop-color:#CDCBD1"/>
	<stop  offset="0.5612" style="stop-color:#E8E8EA"/>
	<stop  offset="0.8137" style="stop-color:#F9F9FA"/>
	<stop  offset="1" style="stop-color:#FFFFFF"/>
</radialGradient>
<rect style="fill:url(#SVGID_1_);" width="800" height="800"/>
<g>
	
		<radialGradient id="SVGID_00000070113770207712068830000010590618367376022145_" cx="853.423" cy="1176.6053" r="65.0039" gradientTransform="matrix(3.3498 0 0 0.4383 -2463.0286 180.0053)" gradientUnits="userSpaceOnUse">
		<stop  offset="0" style="stop-color:#ADAAB3"/>
		<stop  offset="0.272" style="stop-color:#CDCBD1"/>
		<stop  offset="0.5612" style="stop-color:#E8E8EA"/>
		<stop  offset="0.8137" style="stop-color:#F9F9FA"/>
		<stop  offset="1" style="stop-color:#FFFFFF"/>
	</radialGradient>
	<path style="fill:url(#SVGID_00000070113770207712068830000010590618367376022145_);" d="M613.508,693.778
		c0,15.723-97.482,28.482-217.735,28.482c-120.263,0-217.745-12.759-217.745-28.482c0-15.731,97.482-28.479,217.745-28.479
		C516.025,665.3,613.508,678.047,613.508,693.778z"/>
	<g>
		
			<linearGradient id="SVGID_00000005233738869238910060000016905970402369871004_" gradientUnits="userSpaceOnUse" x1="1261.5182" y1="904.0831" x2="1237.0593" y2="1068.7115" gradientTransform="matrix(1.5147 0 0 1.5147 -1534.7926 -893.9518)">
			<stop  offset="0" style="stop-color:#0070B9"/>
			<stop  offset="1" style="stop-color:#00A7E9"/>
		</linearGradient>
		<polygon style="fill:url(#SVGID_00000005233738869238910060000016905970402369871004_);" points="323.391,424.691 
			286.372,649.764 343.352,632.663 400.322,666.854 447.333,424.691 		"/>
		
			<linearGradient id="SVGID_00000101803111555326310480000004801252235228027281_" gradientUnits="userSpaceOnUse" x1="1313.7166" y1="900.0051" x2="1339.1166" y2="986.5541" gradientTransform="matrix(1.5147 0 0 1.5147 -1534.7926 -893.9518)">
			<stop  offset="0" style="stop-color:#0070B9"/>
			<stop  offset="1" style="stop-color:#00A7E9"/>
		</linearGradient>
		<polygon style="fill:url(#SVGID_00000101803111555326310480000004801252235228027281_);" points="388.932,410.451 
			440.213,624.124 477.958,577.817 547.055,577.093 472.983,399.064 		"/>
		
			<linearGradient id="SVGID_00000083794794800984047000000010177003550227679127_" gradientUnits="userSpaceOnUse" x1="1331.9005" y1="864.7861" x2="1351.6561" y2="835.624" gradientTransform="matrix(1.5147 0 0 1.5147 -1534.7926 -893.9518)">
			<stop  offset="0" style="stop-color:#0070B9"/>
			<stop  offset="1" style="stop-color:#00A7E9"/>
		</linearGradient>
		<path style="fill:url(#SVGID_00000083794794800984047000000010177003550227679127_);" d="M491.339,358.27l53.726,35.9
			c0,0-14.136,33.394-53.841,37.704l-37.155-45.393C454.068,386.48,498.396,362.986,491.339,358.27z"/>
		
			<linearGradient id="SVGID_00000078733391127881571440000017421811196371784068_" gradientUnits="userSpaceOnUse" x1="1231.1407" y1="718.9233" x2="1208.5631" y2="736.7977" gradientTransform="matrix(1.5147 0 0 1.5147 -1534.7926 -893.9518)">
			<stop  offset="0" style="stop-color:#0070B9"/>
			<stop  offset="1" style="stop-color:#00A7E9"/>
		</linearGradient>
		<path style="fill:url(#SVGID_00000078733391127881571440000017421811196371784068_);" d="M321.38,244.702l-53.746-35.9
			c0,0,14.126-33.392,53.84-37.693l37.154,45.384C358.628,216.493,314.302,239.987,321.38,244.702z"/>
		
			<linearGradient id="SVGID_00000047028621800277319270000016221481023956667545_" gradientUnits="userSpaceOnUse" x1="1211.1802" y1="842.7854" x2="1237.5209" y2="861.6008" gradientTransform="matrix(1.5147 0 0 1.5147 -1534.7926 -893.9518)">
			<stop  offset="0" style="stop-color:#0070B9"/>
			<stop  offset="1" style="stop-color:#00A7E9"/>
		</linearGradient>
		<path style="fill:url(#SVGID_00000047028621800277319270000016221481023956667545_);" d="M349.571,386.471l-35.901,53.726
			c0,0-33.392-14.136-37.704-53.83L321.36,349.2C321.36,349.2,344.855,393.537,349.571,386.471z"/>
		
			<linearGradient id="SVGID_00000018211527689147321970000005720727359368386979_" gradientUnits="userSpaceOnUse" x1="1356.426" y1="743.5704" x2="1336.6707" y2="720.9928" gradientTransform="matrix(1.5147 0 0 1.5147 -1534.7926 -893.9518)">
			<stop  offset="0" style="stop-color:#0070B9"/>
			<stop  offset="1" style="stop-color:#00A7E9"/>
		</linearGradient>
		<path style="fill:url(#SVGID_00000018211527689147321970000005720727359368386979_);" d="M463.128,216.513l35.91-53.737
			c0,0,33.393,14.126,37.693,53.83l-45.384,37.165C491.348,253.77,467.853,209.444,463.128,216.513z"/>
		
			<linearGradient id="SVGID_00000050643013753105594980000000395228669955008922_" gradientUnits="userSpaceOnUse" x1="1267.2529" y1="875.4361" x2="1303.0017" y2="875.4361" gradientTransform="matrix(1.5147 0 0 1.5147 -1534.7926 -893.9518)">
			<stop  offset="0" style="stop-color:#0070B9"/>
			<stop  offset="1" style="stop-color:#00A7E9"/>
		</linearGradient>
		<path style="fill:url(#SVGID_00000050643013753105594980000000395228669955008922_);" d="M426.295,401.726l12.603,63.386
			c0,0-33.611,13.619-64.723-11.4l5.814-58.38C379.988,395.331,427.941,410.059,426.295,401.726z"/>
		
			<linearGradient id="SVGID_00000181777436725885458050000013739956501644150453_" gradientUnits="userSpaceOnUse" x1="1303.3594" y1="704.3113" x2="1269.493" y2="701.4891" gradientTransform="matrix(1.5147 0 0 1.5147 -1534.7926 -893.9518)">
			<stop  offset="0" style="stop-color:#0070B9"/>
			<stop  offset="1" style="stop-color:#00A7E9"/>
		</linearGradient>
		<path style="fill:url(#SVGID_00000181777436725885458050000013739956501644150453_);" d="M386.414,201.248l-12.603-63.386
			c0,0,33.601-13.607,64.723,11.411l-5.824,58.37C432.71,207.642,384.746,192.904,386.414,201.248z"/>
		
			<linearGradient id="SVGID_00000025420690635462196780000005733101496331869367_" gradientUnits="userSpaceOnUse" x1="1195.121" y1="783.5857" x2="1197.9431" y2="807.1042" gradientTransform="matrix(1.5147 0 0 1.5147 -1534.7926 -893.9518)">
			<stop  offset="0" style="stop-color:#0070B9"/>
			<stop  offset="1" style="stop-color:#00A7E9"/>
		</linearGradient>
		<path style="fill:url(#SVGID_00000025420690635462196780000005733101496331869367_);" d="M306.114,321.426l-63.385,12.602
			c0,0-13.617-33.599,11.401-64.721l58.38,5.813C312.51,275.12,297.761,323.074,306.114,321.426z"/>
		
			<linearGradient id="SVGID_00000089540295928665490910000005871491133506587042_" gradientUnits="userSpaceOnUse" x1="1367.7466" y1="809.248" x2="1367.7466" y2="775.3821" gradientTransform="matrix(1.5147 0 0 1.5147 -1534.7926 -893.9518)">
			<stop  offset="0" style="stop-color:#0070B9"/>
			<stop  offset="1" style="stop-color:#00A7E9"/>
		</linearGradient>
		<path style="fill:url(#SVGID_00000089540295928665490910000005871491133506587042_);" d="M506.594,281.557l63.386-12.613
			c0,0,13.618,33.6-11.411,64.722l-58.38-5.824C500.188,327.841,514.926,279.888,506.594,281.557z"/>
		
			<linearGradient id="SVGID_00000100363412258885619640000003041743701021949591_" gradientUnits="userSpaceOnUse" x1="1352.3311" y1="841.639" x2="1368.3231" y2="807.7724" gradientTransform="matrix(1.5147 0 0 1.5147 -1534.7926 -893.9518)">
			<stop  offset="0" style="stop-color:#0070B9"/>
			<stop  offset="1" style="stop-color:#00A7E9"/>
		</linearGradient>
		<path style="fill:url(#SVGID_00000100363412258885619640000003041743701021949591_);" d="M506.594,321.426l63.396,12.602
			c0,0-0.281,36.263-35.31,55.436l-51.717-27.713C482.963,361.751,514.926,323.074,506.594,321.426z"/>
		
			<linearGradient id="SVGID_00000176036446665074605730000015954375883488613539_" gradientUnits="userSpaceOnUse" x1="1206.3407" y1="745.0082" x2="1196.9329" y2="769.4669" gradientTransform="matrix(1.5147 0 0 1.5147 -1534.7926 -893.9518)">
			<stop  offset="0" style="stop-color:#0070B9"/>
			<stop  offset="1" style="stop-color:#00A7E9"/>
		</linearGradient>
		<path style="fill:url(#SVGID_00000176036446665074605730000015954375883488613539_);" d="M306.114,281.545l-63.395-12.602
			c0,0,0.28-36.263,35.31-55.436l51.705,27.723C329.734,241.23,297.782,279.888,306.114,281.545z"/>
		
			<linearGradient id="SVGID_00000150059971008271536020000000831177927450912438_" gradientUnits="userSpaceOnUse" x1="1234.8892" y1="863.5724" x2="1272.5171" y2="877.6832" gradientTransform="matrix(1.5147 0 0 1.5147 -1534.7926 -893.9518)">
			<stop  offset="0" style="stop-color:#0070B9"/>
			<stop  offset="1" style="stop-color:#00A7E9"/>
		</linearGradient>
		<path style="fill:url(#SVGID_00000150059971008271536020000000831177927450912438_);" d="M386.414,401.726l-12.603,63.386
			c0,0-36.272-0.28-55.436-35.3l27.713-51.715C346.088,378.097,384.746,410.059,386.414,401.726z"/>
		
			<linearGradient id="SVGID_00000150063413133596571010000000894570420588522411_" gradientUnits="userSpaceOnUse" x1="1337.6844" y1="719.6521" x2="1305.7007" y2="705.5413" gradientTransform="matrix(1.5147 0 0 1.5147 -1534.7926 -893.9518)">
			<stop  offset="0" style="stop-color:#0070B9"/>
			<stop  offset="1" style="stop-color:#00A7E9"/>
		</linearGradient>
		<path style="fill:url(#SVGID_00000150063413133596571010000000894570420588522411_);" d="M426.295,201.248l12.603-63.386
			c0,0,36.262,0.28,55.435,35.31l-27.724,51.695C466.608,224.866,427.952,192.904,426.295,201.248z"/>
		
			<linearGradient id="SVGID_00000183237626966510673350000014077456254434245523_" gradientUnits="userSpaceOnUse" x1="1298.2206" y1="873.8481" x2="1328.3234" y2="866.3214" gradientTransform="matrix(1.5147 0 0 1.5147 -1534.7926 -893.9518)">
			<stop  offset="0" style="stop-color:#0070B9"/>
			<stop  offset="1" style="stop-color:#00A7E9"/>
		</linearGradient>
		<path style="fill:url(#SVGID_00000183237626966510673350000014077456254434245523_);" d="M463.128,386.471l35.91,53.726
			c0,0-25.837,25.453-64.163,14.239l-16.955-56.161C417.92,398.274,467.853,393.537,463.128,386.471z"/>
		
			<linearGradient id="SVGID_00000114068646173334490880000012504932740224339859_" gradientUnits="userSpaceOnUse" x1="1263.0267" y1="704.093" x2="1236.6852" y2="713.501" gradientTransform="matrix(1.5147 0 0 1.5147 -1534.7926 -893.9518)">
			<stop  offset="0" style="stop-color:#0070B9"/>
			<stop  offset="1" style="stop-color:#00A7E9"/>
		</linearGradient>
		<path style="fill:url(#SVGID_00000114068646173334490880000012504932740224339859_);" d="M349.581,216.513l-35.911-53.748
			c0,0,25.838-25.442,64.163-14.229l16.966,56.162C394.799,204.698,344.855,209.435,349.581,216.513z"/>
		
			<linearGradient id="SVGID_00000067923537235694637010000014978326166690070923_" gradientUnits="userSpaceOnUse" x1="1199.3228" y1="816.1303" x2="1210.6119" y2="841.5309" gradientTransform="matrix(1.5147 0 0 1.5147 -1534.7926 -893.9518)">
			<stop  offset="0" style="stop-color:#0070B9"/>
			<stop  offset="1" style="stop-color:#00A7E9"/>
		</linearGradient>
		<path style="fill:url(#SVGID_00000067923537235694637010000014978326166690070923_);" d="M321.38,358.26l-53.746,35.9
			c0,0-25.433-25.827-14.24-64.153l56.162-16.965C309.556,313.042,314.302,362.986,321.38,358.26z"/>
		
			<linearGradient id="SVGID_00000169540118328303236450000014131575658336486275_" gradientUnits="userSpaceOnUse" x1="1368.5741" y1="775.2583" x2="1355.4045" y2="740.451" gradientTransform="matrix(1.5147 0 0 1.5147 -1534.7926 -893.9518)">
			<stop  offset="0" style="stop-color:#0070B9"/>
			<stop  offset="1" style="stop-color:#00A7E9"/>
		</linearGradient>
		<path style="fill:url(#SVGID_00000169540118328303236450000014131575658336486275_);" d="M491.339,244.702l53.726-35.9
			c0,0,25.444,25.837,14.24,64.163l-56.161,16.956C503.144,289.92,498.396,239.987,491.339,244.702z"/>
		
			<linearGradient id="SVGID_00000166669238337270556080000009914694285201327248_" gradientUnits="userSpaceOnUse" x1="1341.6675" y1="1062.1414" x2="1494.0227" y2="1062.1414" gradientTransform="matrix(1.5147 0 0 1.5147 -1735.4498 -1307.3346)">
			<stop  offset="0" style="stop-color:#E7B687"/>
			<stop  offset="0.4011" style="stop-color:#EFF3E0"/>
			<stop  offset="1" style="stop-color:#FFEB93"/>
		</linearGradient>
		<path style="fill:url(#SVGID_00000166669238337270556080000009914694285201327248_);" d="M521.735,301.497
			c0,63.716-51.665,115.38-115.382,115.38c-63.726,0-115.391-51.664-115.391-115.38c0-63.738,51.664-115.392,115.391-115.392
			C470.07,186.105,521.735,237.758,521.735,301.497z"/>
		
			<radialGradient id="SVGID_00000127033161372278554110000009571217344625385357_" cx="1277.9144" cy="820.4993" r="46.6687" gradientTransform="matrix(2.1374 0 0 2.1374 -2319.2969 -1446.8398)" gradientUnits="userSpaceOnUse">
			<stop  offset="0" style="stop-color:#00A7E9"/>
			<stop  offset="0.5071" style="stop-color:#00A5E7"/>
			<stop  offset="0.6898" style="stop-color:#009EE1"/>
			<stop  offset="0.82" style="stop-color:#0093D7"/>
			<stop  offset="0.9245" style="stop-color:#0082C9"/>
			<stop  offset="1" style="stop-color:#0070B9"/>
		</radialGradient>
		<path style="fill:url(#SVGID_00000127033161372278554110000009571217344625385357_);" d="M506.076,301.497
			c0,55.062-44.649,99.71-99.723,99.71c-55.073,0-99.721-44.648-99.721-99.71c0-55.084,44.648-99.721,99.721-99.721
			C461.428,201.776,506.076,246.413,506.076,301.497z"/>
	</g>
</g>
</svg>
