<?xml version="1.0" encoding="utf-8"?>
<!-- Generator: Adobe Illustrator 27.5.0, SVG Export Plug-In . SVG Version: 6.00 Build 0)  -->
<svg version="1.1" xmlns="http://www.w3.org/2000/svg" xmlns:xlink="http://www.w3.org/1999/xlink" x="0px" y="0px"
	 viewBox="0 0 2200 2200" style="enable-background:new 0 0 2200 2200;" xml:space="preserve">
<g id="background">
	<rect x="0" style="fill:#FFFFFF;" width="2200" height="2200"/>
</g>
<g id="Objects">
	<g>
		<path style="fill:#19839B;" d="M1458.55,643.844l-529.413,755.336l-191.861-247.685l-231.792,231.792l117.567,117.567
			c-16.561,2.799-33.588,4.261-50.943,4.261c-168.239,0-304.585-136.356-304.585-304.585c0-168.239,136.346-304.585,304.585-304.585
			c24.232,0,47.863,2.838,70.478,8.184C666.682,668.667,865.651,485,1107.477,485C1247.387,485,1372.905,546.461,1458.55,643.844z"
			/>
		<path style="fill:#19839B;" d="M1932.478,1150.566c0,195.793-158.757,354.55-354.55,354.55c-43.099,0-84.366-7.796-122.583-21.898
			C1380.944,1621.21,1235.106,1715,1067.352,1715c-24.523,0-48.58-2.005-72.018-5.859l770.6-859.218
			C1865.961,912.604,1932.478,1023.827,1932.478,1150.566z"/>
		<polygon style="fill:#28CE77;" points="1745.024,786.205 915.5,1711.126 587.661,1383.287 731.726,1239.222 931.48,1497.087 
			1539.701,629.307 		"/>
	</g>
</g>
</svg>
